<svg width="33" height="33" viewBox="0 0 33 33" fill="none" xmlns="http://www.w3.org/2000/svg">
<g clip-path="url(#clip0_806_2134)">
<path d="M1.34846 16.163C1.34771 18.8517 2.05022 21.4769 3.38604 23.7908L1.2207 31.6968L9.31149 29.5754C11.5493 30.7936 14.0566 31.432 16.6045 31.4321H16.6112C25.0224 31.4321 31.8693 24.5877 31.8729 16.1751C31.8745 12.0986 30.2884 8.26525 27.4066 5.38128C24.5254 2.49756 20.6934 0.908599 16.6106 0.906738C8.19844 0.906738 1.35205 7.75077 1.34858 16.163" fill="url(#paint0_linear_806_2134)"/>
<path d="M0.803612 16.158C0.802743 18.9434 1.53043 21.6625 2.91388 24.0593L0.670898 32.2487L9.0518 30.0512C11.361 31.3103 13.9609 31.9741 16.6065 31.9751H16.6133C25.3263 31.9751 32.4191 24.8845 32.4228 16.1707C32.4243 11.9477 30.7812 7.97657 27.7965 4.98928C24.8114 2.00237 20.8424 0.356229 16.6133 0.354492C7.89893 0.354492 0.807084 7.44411 0.803612 16.158ZM5.79462 23.6465L5.48169 23.1498C4.16622 21.0581 3.47189 18.641 3.47288 16.159C3.47574 8.91623 9.37019 3.02364 16.6183 3.02364C20.1284 3.02513 23.4271 4.39344 25.9082 6.87604C28.3892 9.3589 29.7544 12.6594 29.7536 16.1697C29.7503 23.4125 23.8558 29.3058 16.6133 29.3058H16.6081C14.2499 29.3046 11.9371 28.6713 9.92014 27.4745L9.44014 27.1898L4.46674 28.4938L5.79462 23.6464V23.6465Z" fill="url(#paint1_linear_806_2134)"/>
<path d="M12.6619 9.5516C12.366 8.89386 12.0546 8.88059 11.7731 8.86905C11.5427 8.85913 11.2792 8.85988 11.016 8.85988C10.7526 8.85988 10.3246 8.95898 9.96278 9.35402C9.60061 9.74943 8.58008 10.705 8.58008 12.6484C8.58008 14.592 9.99564 16.4702 10.193 16.734C10.3906 16.9973 12.9258 21.1131 16.9409 22.6965C20.2778 24.0124 20.9569 23.7507 21.6811 23.6847C22.4054 23.6189 24.0183 22.7294 24.3474 21.807C24.6767 20.8847 24.6767 20.0941 24.578 19.9289C24.4792 19.7643 24.2158 19.6655 23.8208 19.468C23.4256 19.2704 21.4835 18.3148 21.1215 18.1829C20.7593 18.0512 20.496 17.9855 20.2325 18.381C19.9691 18.7759 19.2126 19.6655 18.9821 19.9289C18.7517 20.193 18.5212 20.2258 18.1262 20.0282C17.731 19.83 16.4588 19.4134 14.9494 18.0678C13.7751 17.0207 12.9823 15.7277 12.7519 15.3322C12.5214 14.9373 12.7272 14.7232 12.9253 14.5264C13.1027 14.3494 13.3204 14.0651 13.5181 13.8345C13.7151 13.6038 13.7808 13.4392 13.9125 13.1758C14.0444 12.9121 13.9784 12.6814 13.8798 12.4838C13.7808 12.2862 13.0132 10.3326 12.6619 9.5516Z" fill="white"/>
</g>
<defs>
<linearGradient id="paint0_linear_806_2134" x1="16.5468" y1="31.6968" x2="16.5468" y2="0.906738" gradientUnits="userSpaceOnUse">
<stop stop-color="#1FAF38"/>
<stop offset="1" stop-color="#60D669"/>
</linearGradient>
<linearGradient id="paint1_linear_806_2134" x1="16.5469" y1="32.2487" x2="16.5469" y2="0.354492" gradientUnits="userSpaceOnUse">
<stop stop-color="#F9F9F9"/>
<stop offset="1" stop-color="white"/>
</linearGradient>
<clipPath id="clip0_806_2134">
<rect width="31.76" height="32" fill="white" transform="translate(0.666992 0.354492)"/>
</clipPath>
</defs>
</svg>
